<?xml version="1.0" encoding="UTF-8" standalone="no"?>
<!-- Creator: CorelDRAW -->

<svg
   xml:space="preserve"
   width="91.084mm"
   height="77.319901mm"
   style="clip-rule:evenodd;fill-rule:evenodd;image-rendering:optimizeQuality;shape-rendering:geometricPrecision;text-rendering:geometricPrecision"
   viewBox="0 0 91.084 77.319901"
   version="1.1"
   id="svg10"
   xmlns="http://www.w3.org/2000/svg"
   xmlns:svg="http://www.w3.org/2000/svg"
   xmlns:rdf="http://www.w3.org/1999/02/22-rdf-syntax-ns#"
   xmlns:cc="http://creativecommons.org/ns#"
   xmlns:dc="http://purl.org/dc/elements/1.1/"><metadata
     id="metadata14"><rdf:RDF><cc:Work
         rdf:about=""><dc:format>image/svg+xml</dc:format><dc:type
           rdf:resource="http://purl.org/dc/dcmitype/StillImage" /></cc:Work></rdf:RDF></metadata><defs
     id="defs4"><style
       type="text/css"
       id="style2"><![CDATA[
    .fil0 {fill:#1E327F}
   ]]></style></defs><g
     id="Layer_x0020_1"
     transform="translate(-36.8366,-33.2333)"><metadata
       id="CorelCorpID_0Corel-Layer" /><path
       class="fil0"
       d="m 54.9128,41.1171 c 0,-4.3542 3.5296,-7.8838 7.8837,-7.8838 h 39.2126 c 4.3542,0 7.8833,3.5296 7.8833,7.8838 v 39.2134 c 0,4.3542 -3.5291,7.8838 -7.8833,7.8838 H 62.7965 c -4.3541,0 -7.8837,-3.5296 -7.8837,-7.8838 z m 9.5915,41.7099 c -2.322,0 -4.2044,-1.8825 -4.2044,-4.2046 V 42.8383 c 0,-2.3222 1.8824,-4.2044 4.2044,-4.2044 h 4.7959 c 6.3193,0 10.9992,6.4032 6.9572,10.4508 L 64.5312,60.8271 74.595,71.37 c 4.8791,5.1113 -0.8346,11.457 -6.2485,11.457 z m 15.2179,-44.1933 4.0529,2e-4 c 6.3193,0 10.9993,6.4032 6.9572,10.4508 L 79.0061,60.8271 100.563,82.8182 77.8141,82.8141 c 4.888,0 7.9736,-8.223 2.7422,-13.6698 l -7.9884,-8.3172 9.2999,-9.5869 c 5.0076,-5.1625 1.3729,-11.8041 -2.1456,-12.6065 z m 24.778,39.9887 -17.4571,-17.7953 9.2997,-9.5869 c 5.0079,-5.1625 1.373,-11.8041 -2.1454,-12.6065 l 6.0905,2e-4 c 2.3222,0 4.2046,1.8822 4.2046,4.2044 z m -64.1055,26.21 v 3.2044 h 1.4314 c 0.742,0 1.305,-0.1391 1.6886,-0.4175 0.3837,-0.2778 0.5756,-0.6826 0.5756,-1.2134 0,-0.5245 -0.1758,-0.9179 -0.5275,-1.1803 -0.352,-0.2621 -0.8764,-0.3932 -1.5735,-0.3932 z m 0,-5.4652 v 3.047 h 1.1045 c 0.7687,0 1.3435,-0.1296 1.7245,-0.3893 0.3811,-0.2593 0.5716,-0.6551 0.5716,-1.1868 0,-0.4807 -0.179,-0.8459 -0.5379,-1.096 -0.3585,-0.2499 -0.887,-0.3749 -1.585,-0.3749 z m -3.5581,-2.4574 h 5.5849 c 1.6508,0 2.8919,0.2962 3.7237,0.8888 0.8319,0.5921 1.2479,1.4741 1.2479,2.6459 0,0.7877 -0.2178,1.4422 -0.6531,1.9642 -0.4351,0.5216 -1.0688,0.8976 -1.9009,1.1283 0.9342,0.1729 1.6521,0.5392 2.1544,1.0993 0.5022,0.5595 0.7532,1.2749 0.7532,2.1447 0,1.2797 -0.4573,2.2285 -1.3723,2.8459 -0.9147,0.6175 -2.3253,0.9263 -4.2314,0.9263 h -5.3064 z m 18.7005,3.0426 -1.7662,5.116 h 3.4751 z m -2.1214,-3.0426 h 4.3872 l 5.1645,13.6434 h -3.8877 l -0.9698,-2.8899 h -5.251 l -1.0176,2.8899 h -3.5977 z m 10.3386,0 h 4.5391 l 3.9516,8.1803 c 0.1345,0.2752 0.2912,0.6577 0.4703,1.1473 0.1788,0.4895 0.3773,1.0897 0.5946,1.8005 -0.1151,-0.6723 -0.1998,-1.29 -0.2545,-1.8531 -0.054,-0.5632 -0.0815,-1.0786 -0.0815,-1.5458 v -7.7292 h 3.2831 v 13.6434 h -4.5204 l -4.1049,-8.4781 c -0.1917,-0.3903 -0.3676,-0.8144 -0.5274,-1.2719 -0.1599,-0.4577 -0.3071,-0.9552 -0.4414,-1.4933 0.1279,0.8131 0.2223,1.5605 0.2829,2.2422 0.061,0.6815 0.0917,1.2815 0.0917,1.8003 v 7.2008 h -3.2832 z m 15.0853,0 h 3.6367 v 5.8953 l 4.2247,-5.8953 h 4.0711 l -5.0121,6.2697 5.5232,7.3737 h -4.5187 l -4.2882,-6.3273 v 6.3273 h -3.6367 z m 23.0272,7.9226 v 3.2044 h 1.4314 c 0.7422,0 1.305,-0.1391 1.6887,-0.4175 0.3838,-0.2778 0.5757,-0.6826 0.5757,-1.2134 0,-0.5245 -0.176,-0.9179 -0.5278,-1.1803 -0.3518,-0.2621 -0.8762,-0.3932 -1.5732,-0.3932 z m 0,-5.4652 v 3.047 h 1.1049 c 0.7684,0 1.3433,-0.1296 1.7242,-0.3893 0.3812,-0.2593 0.5719,-0.6551 0.5719,-1.1868 0,-0.4807 -0.1795,-0.8459 -0.5382,-1.096 -0.3584,-0.2499 -0.8868,-0.3749 -1.5849,-0.3749 z m -3.5581,-2.4574 h 5.5851 c 1.6507,0 2.8919,0.2962 3.7235,0.8888 0.832,0.5921 1.2478,1.4741 1.2478,2.6459 0,0.7877 -0.2177,1.4422 -0.6529,1.9642 -0.4352,0.5216 -1.0686,0.8976 -1.9008,1.1283 0.9342,0.1729 1.652,0.5392 2.1544,1.0993 0.502,0.5595 0.7532,1.2749 0.7532,2.1447 0,1.2797 -0.4575,2.2285 -1.3721,2.8459 -0.9148,0.6175 -2.3255,0.9263 -4.2317,0.9263 h -5.3065 z m 16.6163,2.3985 v 3.4992 h 1.2763 c 0.7868,0 1.377,-0.1426 1.7705,-0.4278 0.3933,-0.2853 0.59,-0.7129 0.59,-1.2834 0,-0.6152 -0.2192,-1.0669 -0.6574,-1.3554 -0.438,-0.2883 -1.1307,-0.4326 -2.0771,-0.4326 z m -3.5581,-2.3985 h 5.4199 c 1.8062,0 3.1469,0.2931 4.0213,0.879 0.8746,0.5858 1.3119,1.4773 1.3119,2.6743 0,0.8838 -0.2308,1.6104 -0.6923,2.1804 -0.4616,0.5697 -1.1284,0.9506 -2.0003,1.1427 0.7177,0.2623 1.2948,1.0077 1.7309,2.2362 l 1.6299,4.5308 h -3.7936 l -1.2003,-3.7341 c -0.1919,-0.6015 -0.4544,-1.0176 -0.787,-1.2479 -0.3325,-0.2305 -0.8509,-0.3456 -1.5546,-0.3456 h -0.5277 v 5.3276 h -3.5581 z m 12.9169,0 h 3.6368 v 13.6434 h -3.6368 z"
       id="path7"
       style="fill:#00529c;fill-opacity:1" /></g></svg>
